<?xml version="1.0" encoding="UTF-8" standalone="no"?>
<!-- Created with Inkscape (http://www.inkscape.org/) -->

<svg
   xmlns:dc="http://purl.org/dc/elements/1.1/"
   xmlns:cc="http://creativecommons.org/ns#"
   xmlns:rdf="http://www.w3.org/1999/02/22-rdf-syntax-ns#"
   xmlns:svg="http://www.w3.org/2000/svg"
   xmlns="http://www.w3.org/2000/svg"
   xmlns:sodipodi="http://sodipodi.sourceforge.net/DTD/sodipodi-0.dtd"
   xmlns:inkscape="http://www.inkscape.org/namespaces/inkscape"
   width="150"
   height="150"
   viewBox="0 0 39.687499 39.687501"
   version="1.1"
   id="svg888"
   inkscape:version="0.92.4 (5da689c313, 2019-01-14)"
   sodipodi:docname="icon_hyvabuilder.svg">
  <defs
     id="defs882" />
  <sodipodi:namedview
     id="base"
     pagecolor="#ffffff"
     bordercolor="#666666"
     borderopacity="1.0"
     inkscape:pageopacity="0.0"
     inkscape:pageshadow="2"
     inkscape:zoom="2.3460938"
     inkscape:cx="92.034738"
     inkscape:cy="76.977913"
     inkscape:document-units="mm"
     inkscape:current-layer="layer1"
     showgrid="false"
     units="px"
     inkscape:window-width="1920"
     inkscape:window-height="1027"
     inkscape:window-x="1912"
     inkscape:window-y="-8"
     inkscape:window-maximized="1" />
  <metadata
     id="metadata885">
    <rdf:RDF>
      <cc:Work
         rdf:about="">
        <dc:format>image/svg+xml</dc:format>
        <dc:type
           rdf:resource="http://purl.org/dc/dcmitype/StillImage" />
        <dc:title></dc:title>
      </cc:Work>
    </rdf:RDF>
  </metadata>
  <g
     inkscape:label="Layer 1"
     inkscape:groupmode="layer"
     id="layer1"
     transform="translate(0,-257.31248)">
    <path
       style="fill:none;fill-opacity:1;stroke:#000000;stroke-width:2.08449626;stroke-linecap:butt;stroke-linejoin:miter;stroke-miterlimit:4;stroke-dasharray:none;stroke-opacity:1"
       d="m 25.754338,262.11667 h -13.63656 v 28.71612 H 33.76311 v -21.06811 h -5.411334 c 0,0 -1.7994,-0.25435 -2.015854,-1.84168 -0.216453,-1.58732 0,-5.77208 0,-5.77208 z"
       inkscape:connector-curvature="0"
       id="path4529"
       sodipodi:nodetypes="ccccccccc" />
    <path
       style="fill:#000000;stroke:none;stroke-width:0.40404612px;stroke-linecap:butt;stroke-linejoin:miter;stroke-opacity:1"
       d="m 27.941807,261.10545 v 6.8365 l 6.938518,0.051 z"
       id="path4531"
       inkscape:connector-curvature="0" />
    <rect
       style="opacity:1;fill:#000000;fill-opacity:1;stroke:none;stroke-width:1.87028289;stroke-miterlimit:4;stroke-dasharray:none;stroke-opacity:1"
       id="rect4533"
       width="26.078627"
       height="11.938336"
       x="3.8018818"
       y="-286.86978"
       ry="0.79256672"
       transform="scale(1,-1)" />
    <g
       id="Page-1"
       style="fill:none;fill-rule:evenodd;stroke:none;stroke-width:1"
       transform="matrix(4.7747782,0,0,4.7747782,7.3495798,276.1571)">
      <g
         id="Hyva-logo-(negative)">
        <path
           d="M 3.13,1.81 3.337,1.061 3.404,1.297 H 3.337 L 3.246,1.632 h 0.25 l 0.05,0.177 H 3.959 L 3.546,0.59 H 3.13 L 2.717,1.81 Z M 3.52,1.6 3.569,1.777 H 3.915 L 3.522,0.62 H 3.154 L 2.76,1.777 H 3.107 L 3.337,0.944 3.444,1.33 H 3.361 L 3.285,1.6 Z"
           id="Shape"
           inkscape:connector-curvature="0"
           style="fill:#fefefe" />
        <path
           id="Path"
           d="M 1.49,0.589 H 1.08 l 0.318,0.55 v 0.67 H 1.811 V 1.139 L 2.254,0.374 2.389,0.452 2.265,0 1.81,0.117 1.945,0.194 1.604,0.786 Z"
           inkscape:connector-curvature="0"
           style="fill:#fefefe" />
        <path
           d="M 0,1.81 H 0.413 V 0.588 H 0 v 1.22 z M 0.032,1.777 h 0.35 V 0.62 H 0.032 V 1.776 Z M 0.472,0.853 H 0.631 V 0.589 h 0.413 v 1.22 H 0.63 V 1.266 H 0.472 Z M 0.505,1.236 V 0.886 H 0.663 V 0.62 H 1.011 V 1.776 H 0.663 v -0.54 z"
           id="path6"
           inkscape:connector-curvature="0"
           style="fill:#fefefe" />
        <path
           d="M 2.636,0.589 H 3.052 L 2.636,1.809 H 2.224 L 1.964,1.041 2.224,0.589 2.431,1.199 Z M 3.006,0.621 2.614,1.777 H 2.247 L 1.997,1.044 2.217,0.664 2.431,1.297 2.659,0.621 Z"
           id="path8"
           inkscape:connector-curvature="0"
           style="fill:#ffffff" />
        <g
           id="_1263233968"
           transform="translate(3.66,0.59)"
           style="fill:#fefefe">
          <path
             d="m 0.15,0 a 0.15,0.15 0 1 1 0,0.3 0.15,0.15 0 0 1 0,-0.3 z m 0,0.025 a 0.124,0.124 0 1 1 0,0.248 0.124,0.124 0 0 1 0,-0.248 z"
             id="path10"
             inkscape:connector-curvature="0" />
          <path
             d="M 0.085,0.23 V 0.069 H 0.15 c 0.013,0 0.022,0.001 0.029,0.004 0.007,0.003 0.012,0.009 0.016,0.016 a 0.054,0.054 0 0 1 0.006,0.024 0.041,0.041 0 0 1 -0.01,0.03 0.048,0.048 0 0 1 -0.03,0.014 l 0.011,0.009 c 0.006,0.005 0.01,0.013 0.016,0.021 L 0.213,0.232 H 0.189 L 0.169,0.196 A 0.575,0.575 0 0 0 0.156,0.174 C 0.153,0.17 0.149,0.166 0.146,0.163 A 0.033,0.033 0 0 0 0.138,0.159 H 0.105 V 0.23 Z m 0.02,-0.044 h 0.053 c 0.012,0 0.02,-0.002 0.027,-0.006 A 0.033,0.033 0 0 0 0.2,0.162 C 0.202,0.153 0.205,0.145 0.205,0.134 A 0.06,0.06 0 0 0 0.195,0.1 C 0.188,0.09 0.178,0.086 0.165,0.086 h -0.06 z"
             id="path12"
             inkscape:connector-curvature="0"
             style="fill-rule:nonzero" />
        </g>
      </g>
    </g>
  </g>
</svg>
