<?xml version="1.0" encoding="UTF-8" standalone="no"?>
<svg
   xmlns:dc="http://purl.org/dc/elements/1.1/"
   xmlns:cc="http://creativecommons.org/ns#"
   xmlns:rdf="http://www.w3.org/1999/02/22-rdf-syntax-ns#"
   xmlns:svg="http://www.w3.org/2000/svg"
   xmlns="http://www.w3.org/2000/svg"
   xmlns:sodipodi="http://sodipodi.sourceforge.net/DTD/sodipodi-0.dtd"
   xmlns:inkscape="http://www.inkscape.org/namespaces/inkscape"
   height="150"
   viewBox="-51 0 112.5 112.5"
   width="150"
   version="1.1"
   id="svg16"
   sodipodi:docname="icon_survey-white.svg"
   inkscape:version="0.92.4 (5da689c313, 2019-01-14)">
  <metadata
     id="metadata22">
    <rdf:RDF>
      <cc:Work
         rdf:about="">
        <dc:format>image/svg+xml</dc:format>
        <dc:type
           rdf:resource="http://purl.org/dc/dcmitype/StillImage" />
        <dc:title></dc:title>
      </cc:Work>
    </rdf:RDF>
  </metadata>
  <defs
     id="defs20" />
  <sodipodi:namedview
     pagecolor="#ffffff"
     bordercolor="#666666"
     borderopacity="1"
     objecttolerance="10"
     gridtolerance="10"
     guidetolerance="10"
     inkscape:pageopacity="0"
     inkscape:pageshadow="2"
     inkscape:window-width="1920"
     inkscape:window-height="1017"
     id="namedview18"
     showgrid="false"
     inkscape:zoom="1.9555922"
     inkscape:cx="-46.638315"
     inkscape:cy="148.62346"
     inkscape:window-x="1912"
     inkscape:window-y="-8"
     inkscape:window-maximized="1"
     inkscape:current-layer="svg16"
     units="px" />
  <path
     style="stroke-width:0.20864326;fill:#ffffff;fill-opacity:1"
     d="m -5.8839417,2.6803322 c -2.4368885,0 -4.4711603,1.75553 -4.9047453,4.06854 h -20.462524 c -2.991097,0 -5.424625,2.43353 -5.424625,5.4246298 v 91.907448 c 0,2.99109 2.433528,5.42462 5.424625,5.42462 h 74.485639 c 2.991097,0 5.424928,-2.43353 5.424928,-5.42462 V 32.843233 c 0,-0.06806 -0.0059,-0.134734 -0.01436,-0.200494 v -5.44143 c 0.0084,-0.06569 0.01436,-0.132189 0.01436,-0.20019 V 12.173502 c 0,-2.9910998 -2.433831,-5.4246298 -5.424928,-5.4246298 H 22.771903 c -0.433586,-2.31301 -2.467857,-4.06854 -4.904746,-4.06854 z m 0,3.12965 H 17.867157 c 1.025285,0 1.860063,0.83446 1.860063,1.85975 v 4.4200198 c 0,1.025284 -0.834778,1.859759 -1.860063,1.859759 h -5.476885 c -0.864728,0 -1.564825,0.700909 -1.564825,1.564823 v 1.423013 c 0,2.665088 -2.1687462,4.833836 -4.8338382,4.833836 -2.6650942,0 -4.8338407,-2.168748 -4.8338407,-4.833836 v -1.423013 c 0,-0.863914 -0.7000962,-1.564823 -1.56482441,-1.564823 H -5.8839417 c -1.0252856,0 -1.8597588,-0.834475 -1.8597588,-1.859759 V 7.6697322 c 0,-1.02529 0.8344732,-1.85975 1.8597588,-1.85975 z m -25.3672693,4.06854 h 20.377862 c 0.117364,1.5542298 -0.389676,3.1744738 0.862183,5.0123228 h -16.962758 c -0.864729,0 -1.564825,0.700917 -1.564825,1.564831 v 40.628279 c 0,0.06967 0.0062,0.137845 0.01498,0.205076 -0.0048,0.130101 -0.0079,0.261723 -0.0079,0.39518 v 5.100343 c -0.0042,0.04675 -0.007,0.09371 -0.007,0.141514 v 36.872701 c 0,0.863911 0.700096,1.564821 1.564825,1.564821 h 65.931368 c 0.86473,0 1.564825,-0.70091 1.564825,-1.564821 V 16.455676 c 0,-0.863914 -0.700095,-1.564831 -1.564825,-1.564831 H 21.994382 c 1.2486,-1.833774 0.746757,-3.477653 0.862487,-5.0123228 h 20.377559 c 1.265716,0 2.295278,1.0292498 2.295278,2.2949798 v 13.693424 c -0.03356,0.331567 -0.05318,0.677937 -0.05318,1.037311 v 7.90725 c 0,0.359425 0.01961,0.705711 0.05318,1.037311 v 68.232152 c 0,1.26571 -1.029562,2.29497 -2.295278,2.29497 h -74.485639 c -1.265716,0 -2.294975,-1.02926 -2.294975,-2.29497 V 12.173502 c 0,-1.26573 1.029259,-2.2949798 2.294975,-2.2949798 z m 5.842111,8.1419768 h 23.5105699 c 0.6471195,4.690394 5.1738019,7.720715 9.6881575,6.675871 3.1899616,-0.739217 5.6348976,-3.36122 6.0921176,-6.675871 H 37.39262 V 98.233945 H -25.4091 v -31.90561 c 0.02889,-0.309162 0.04584,-0.630397 0.04584,-0.963037 v -7.681087 c 0,-0.332641 -0.01696,-0.653876 -0.04584,-0.963037 z"
     id="path2"
     inkscape:connector-curvature="0" />
  <path
     d="m -14.569429,44.463585 h 7.0441533 c 2.4988306,0 4.5314708,-2.032645 4.5314708,-4.53066 v -7.044967 c 0,-2.498015 -2.0326402,-4.530651 -4.5314708,-4.530651 h -7.0441533 c -2.498829,0 -4.531471,2.032636 -4.531471,4.530651 v 7.044967 c 0,2.498015 2.032642,4.53066 4.531471,4.53066 z m -1.401823,-11.575627 c 0,-0.772629 0.628375,-1.401005 1.401823,-1.401005 h 7.0441533 c 0.7726331,0 1.4018219,0.628376 1.4018219,1.401005 v 7.044967 c 0,0.772638 -0.6291888,1.401014 -1.4018219,1.401014 h -7.0441533 c -0.773448,0 -1.401823,-0.628376 -1.401823,-1.401014 z m 0,0"
     id="path4"
     inkscape:connector-curvature="0"
     style="stroke-width:0.20864326;fill:#ffffff;fill-opacity:1" />
  <path
     d="M 2.3958738,37.975265 H 29.519498 c 0.863914,0 1.564824,-0.700909 1.564824,-1.564823 0,-0.863915 -0.70091,-1.564823 -1.564824,-1.564823 H 2.3958738 c -0.8647282,0 -1.56482436,0.700908 -1.56482436,1.564823 0,0.863914 0.70009616,1.564823 1.56482436,1.564823 z m 0,0"
     id="path6"
     inkscape:connector-curvature="0"
     style="stroke-width:0.20864326;fill:#ffffff;fill-opacity:1" />
  <path
     d="m -19.1009,61.649752 c 0,2.498015 2.032642,4.53066 4.531471,4.53066 h 7.0441533 c 2.4988306,0 4.5314708,-2.032645 4.5314708,-4.53066 v -7.044967 c 0,-2.498015 -2.0326402,-4.530651 -4.5314708,-4.530651 h -7.0441533 c -2.498829,0 -4.531471,2.032636 -4.531471,4.530651 z m 3.129648,-7.044967 c 0,-0.772629 0.628375,-1.401005 1.401823,-1.401005 h 7.0441533 c 0.7726331,0 1.4018219,0.628376 1.4018219,1.401005 v 7.044967 c 0,0.772638 -0.6291888,1.401014 -1.4018219,1.401014 h -7.0441533 c -0.773448,0 -1.401823,-0.628376 -1.401823,-1.401014 z m 0,0"
     id="path8"
     inkscape:connector-curvature="0"
     style="stroke-width:0.20864326;fill:#ffffff;fill-opacity:1" />
  <path
     d="M 2.3958738,59.6921 H 29.519498 c 0.863914,0 1.564824,-0.700917 1.564824,-1.564831 0,-0.863915 -0.70091,-1.564823 -1.564824,-1.564823 H 2.3958738 c -0.8647282,0 -1.56482436,0.700908 -1.56482436,1.564823 0,0.863914 0.70009616,1.564831 1.56482436,1.564831 z m 0,0"
     id="path10"
     inkscape:connector-curvature="0"
     style="stroke-width:0.20864326;fill:#ffffff;fill-opacity:1" />
  <path
     d="m -19.1009,83.366588 c 0,2.498015 2.032642,4.530652 4.531471,4.530652 h 7.0441533 c 2.4988306,0 4.5314708,-2.032637 4.5314708,-4.530652 v -7.044975 c 0,-2.498007 -2.0326402,-4.530652 -4.5314708,-4.530652 h -7.0441533 c -2.498829,0 -4.531471,2.032645 -4.531471,4.530652 z m 3.129648,-7.044975 c 0,-0.77263 0.628375,-1.401006 1.401823,-1.401006 h 7.0441533 c 0.7726331,0 1.4018219,0.628376 1.4018219,1.401006 v 7.044975 c 0,0.772629 -0.6291888,1.401005 -1.4018219,1.401005 h -7.0441533 c -0.773448,0 -1.401823,-0.628376 -1.401823,-1.401005 z m 0,0"
     id="path12"
     inkscape:connector-curvature="0"
     style="stroke-width:0.20864326;fill:#ffffff;fill-opacity:1" />
  <path
     d="M 2.3958738,78.279273 H 29.519498 c 0.863914,0 1.564824,0.700917 1.564824,1.564832 0,0.863906 -0.70091,1.564823 -1.564824,1.564823 H 2.3958738 c -0.8647282,0 -1.56482436,-0.700917 -1.56482436,-1.564823 0,-0.863915 0.70009616,-1.564832 1.56482436,-1.564832 z m 0,0"
     id="path14"
     inkscape:connector-curvature="0"
     style="stroke-width:0.20864326;fill:#ffffff;fill-opacity:1" />
</svg>
