<?xml version="1.0" encoding="UTF-8" standalone="no"?>
<svg
   xmlns:dc="http://purl.org/dc/elements/1.1/"
   xmlns:cc="http://creativecommons.org/ns#"
   xmlns:rdf="http://www.w3.org/1999/02/22-rdf-syntax-ns#"
   xmlns:svg="http://www.w3.org/2000/svg"
   xmlns="http://www.w3.org/2000/svg"
   xmlns:sodipodi="http://sodipodi.sourceforge.net/DTD/sodipodi-0.dtd"
   xmlns:inkscape="http://www.inkscape.org/namespaces/inkscape"
   width="420"
   height="420"
   stroke="#000"
   fill="none"
   version="1.1"
   id="svg6"
   sodipodi:docname="icon_location.svg"
   inkscape:version="0.92.4 (5da689c313, 2019-01-14)">
  <metadata
     id="metadata12">
    <rdf:RDF>
      <cc:Work
         rdf:about="">
        <dc:format>image/svg+xml</dc:format>
        <dc:type
           rdf:resource="http://purl.org/dc/dcmitype/StillImage" />
      </cc:Work>
    </rdf:RDF>
  </metadata>
  <defs
     id="defs10">
    <pattern
       y="0"
       x="0"
       height="6"
       width="6"
       patternUnits="userSpaceOnUse"
       id="EMFhbasepattern" />
  </defs>
  <sodipodi:namedview
     pagecolor="#ffffff"
     bordercolor="#666666"
     borderopacity="1"
     objecttolerance="10"
     gridtolerance="10"
     guidetolerance="10"
     inkscape:pageopacity="0"
     inkscape:pageshadow="2"
     inkscape:window-width="1920"
     inkscape:window-height="1027"
     id="namedview8"
     showgrid="false"
     inkscape:zoom="0.56190476"
     inkscape:cx="-86.31356"
     inkscape:cy="210"
     inkscape:window-x="1912"
     inkscape:window-y="-8"
     inkscape:window-maximized="1"
     inkscape:current-layer="svg6" />
  <path
     id="path825"
     d="M 270.37202,68.843965 C 192.36284,38.2439 104.51775,77.052979 74.000017,155.56108 c -30.542632,78.50788 7.743062,167.15633 85.600583,198.13776 77.80727,30.93029 165.85427,-7.396 196.77536,-85.75133 30.97157,-78.35533 -6.86006,-167.1819 -84.54125,-198.544497 z"
     style="fill:none;stroke:#000000;stroke-width:20.22735977px;stroke-linecap:butt;stroke-linejoin:miter;stroke-miterlimit:4;stroke-dasharray:none;stroke-opacity:1.0"
     inkscape:connector-curvature="0" />
  <path
     id="path827"
     d="M 271.10336,69.123494 159.6006,353.69884 M 356.52739,267.59171 74.126096,155.20505 M 140.33168,80.331694 C 187.29345,153.40069 275.16389,188.37222 358.99916,167.35368 M 290.37229,342.4653 C 243.38538,269.39606 155.54006,234.45011 71.679686,255.44307 M 258.79545,68.437234 C 204.4942,86.863322 160.98792,128.54438 139.97856,182.24709 c -21.08472,53.72785 -17.55385,114.0894 9.60934,164.9199 m 21.71534,8.66666 c 54.30126,-18.477 97.78242,-60.08179 118.84202,-113.83521 21.03446,-53.67714 17.52872,-114.06381 -9.63447,-164.919892"
     style="fill:none;stroke:#000000;stroke-width:14.0229578px;stroke-linecap:butt;stroke-linejoin:miter;stroke-miterlimit:4;stroke-dasharray:none;stroke-opacity:1.0"
     inkscape:connector-curvature="0" />
  <path
     id="path829"
     d="m 289.8175,21.291948 -6.05312,15.477821"
     style="fill:none;stroke:#000000;stroke-width:18.91585922px;stroke-linecap:round;stroke-linejoin:round;stroke-miterlimit:4;stroke-dasharray:none;stroke-opacity:1.0"
     inkscape:connector-curvature="0" />
  <path
     id="path831"
     d="m 146.61182,386.76417 -6.05311,15.50318"
     style="fill:none;stroke:#000000;stroke-width:18.91585922px;stroke-linecap:round;stroke-linejoin:round;stroke-miterlimit:4;stroke-dasharray:none;stroke-opacity:1.0"
     inkscape:connector-curvature="0" />
</svg>
