<?xml version="1.0" encoding="UTF-8" standalone="no"?>
<!-- Generator: Adobe Illustrator 19.0.0, SVG Export Plug-In . SVG Version: 6.00 Build 0)  -->

<svg
   xmlns:dc="http://purl.org/dc/elements/1.1/"
   xmlns:cc="http://creativecommons.org/ns#"
   xmlns:rdf="http://www.w3.org/1999/02/22-rdf-syntax-ns#"
   xmlns:svg="http://www.w3.org/2000/svg"
   xmlns="http://www.w3.org/2000/svg"
   xmlns:sodipodi="http://sodipodi.sourceforge.net/DTD/sodipodi-0.dtd"
   xmlns:inkscape="http://www.inkscape.org/namespaces/inkscape"
   version="1.1"
   id="Capa_1"
   x="0px"
   y="0px"
   viewBox="0 0 150 150"
   xml:space="preserve"
   sodipodi:docname="icon_orgunit.svg"
   width="150"
   height="150"
   inkscape:version="0.92.4 (5da689c313, 2019-01-14)"><metadata
   id="metadata187"><rdf:RDF><cc:Work
       rdf:about=""><dc:format>image/svg+xml</dc:format><dc:type
         rdf:resource="http://purl.org/dc/dcmitype/StillImage" /><dc:title></dc:title></cc:Work></rdf:RDF></metadata><defs
   id="defs185" /><sodipodi:namedview
   pagecolor="#ffffff"
   bordercolor="#666666"
   borderopacity="1"
   objecttolerance="10"
   gridtolerance="10"
   guidetolerance="10"
   inkscape:pageopacity="0"
   inkscape:pageshadow="2"
   inkscape:window-width="1920"
   inkscape:window-height="1027"
   id="namedview183"
   showgrid="false"
   inkscape:zoom="1.3037281"
   inkscape:cx="65.881439"
   inkscape:cy="173.58351"
   inkscape:window-x="1912"
   inkscape:window-y="-8"
   inkscape:window-maximized="1"
   inkscape:current-layer="Capa_1" />
<g
   id="g6"
   transform="matrix(0.27966102,0,0,0.27966102,4.4705852,3.5048112)">
	<g
   id="g4">
		<path
   d="m 477.867,102.4 c -18.825,0 -34.133,15.309 -34.133,34.133 0,18.824 15.309,34.133 34.133,34.133 18.824,0 34.133,-15.308 34.133,-34.133 0,-18.824 -15.309,-34.133 -34.133,-34.133 z m 0,51.2 c -9.412,0 -17.067,-7.654 -17.067,-17.067 0,-9.412 7.654,-17.067 17.067,-17.067 9.413,0 17.067,7.654 17.067,17.067 -0.001,9.413 -7.655,17.067 -17.067,17.067 z"
   id="path2"
   inkscape:connector-curvature="0" />
	</g>
</g>
<g
   id="g12"
   transform="matrix(0.27966102,0,0,0.27966102,4.4705852,3.5048112)">
	<g
   id="g10">
		<path
   d="M 34.133,384 C 15.309,384 0,399.309 0,418.133 c 0,18.824 15.309,34.133 34.133,34.133 18.825,0 34.133,-15.309 34.133,-34.133 C 68.266,399.309 52.958,384 34.133,384 Z m 0,51.2 c -9.412,0 -17.067,-7.654 -17.067,-17.067 0,-9.413 7.654,-17.067 17.067,-17.067 9.412,0 17.067,7.654 17.067,17.067 0,9.413 -7.654,17.067 -17.067,17.067 z"
   id="path8"
   inkscape:connector-curvature="0" />
	</g>
</g>
<g
   id="g18"
   transform="matrix(0.27966102,0,0,0.27966102,4.4705852,3.5048112)">
	<g
   id="g16">
		<path
   d="M 461.321,113.186 387.704,77.645 c -4.25,-2.057 -9.344,-0.265 -11.392,3.977 -2.048,4.241 -0.265,9.344 3.977,11.392 l 73.617,35.541 c 1.195,0.58 2.458,0.853 3.703,0.853 3.174,0 6.221,-1.775 7.688,-4.83 2.048,-4.241 0.265,-9.344 -3.976,-11.392 z"
   id="path14"
   inkscape:connector-curvature="0" />
	</g>
</g>
<g
   id="g24"
   transform="matrix(0.27966102,0,0,0.27966102,4.4705852,3.5048112)">
	<g
   id="g22">
		<path
   d="m 384,443.733 c -18.825,0 -34.133,15.309 -34.133,34.133 0,18.824 15.308,34.134 34.133,34.134 18.825,0 34.133,-15.309 34.133,-34.133 0,-18.824 -15.308,-34.134 -34.133,-34.134 z m 0,51.2 c -9.412,0 -17.067,-7.654 -17.067,-17.067 0,-9.413 7.655,-17.066 17.067,-17.066 9.412,0 17.067,7.654 17.067,17.067 0,9.413 -7.655,17.066 -17.067,17.066 z"
   id="path20"
   inkscape:connector-curvature="0" />
	</g>
</g>
<g
   id="g30"
   transform="matrix(0.27966102,0,0,0.27966102,4.4705852,3.5048112)">
	<g
   id="g28">
		<path
   d="m 367.454,454.52 -73.617,-35.541 c -4.25,-2.057 -9.344,-0.273 -11.392,3.977 -2.048,4.241 -0.265,9.344 3.977,11.392 l 73.617,35.541 c 1.195,0.58 2.458,0.853 3.703,0.853 3.174,0 6.221,-1.775 7.689,-4.83 2.047,-4.242 0.264,-9.344 -3.977,-11.392 z"
   id="path26"
   inkscape:connector-curvature="0" />
	</g>
</g>
<g
   id="g36"
   transform="matrix(0.27966102,0,0,0.27966102,4.4705852,3.5048112)">
	<g
   id="g34">
		<path
   d="m 256,230.4 c -18.825,0 -34.133,15.309 -34.133,34.133 0,18.825 15.309,34.133 34.133,34.133 18.825,0 34.133,-15.309 34.133,-34.133 0,-18.824 -15.308,-34.133 -34.133,-34.133 z m 0,51.2 c -9.412,0 -17.067,-7.654 -17.067,-17.067 0,-9.412 7.654,-17.067 17.067,-17.067 9.412,0 17.067,7.654 17.067,17.067 0,9.413 -7.655,17.067 -17.067,17.067 z"
   id="path32"
   inkscape:connector-curvature="0" />
	</g>
</g>
<g
   id="g42"
   transform="matrix(0.27966102,0,0,0.27966102,4.4705852,3.5048112)">
	<g
   id="g40">
		<path
   d="m 240.998,242.142 -56.55,-44.075 c -3.721,-2.876 -9.079,-2.236 -11.981,1.485 -2.893,3.721 -2.236,9.079 1.485,11.981 l 56.55,44.075 c 1.562,1.212 3.405,1.801 5.24,1.801 2.543,0 5.052,-1.126 6.741,-3.285 2.893,-3.722 2.236,-9.081 -1.485,-11.982 z"
   id="path38"
   inkscape:connector-curvature="0" />
	</g>
</g>
<g
   id="g48"
   transform="matrix(0.27966102,0,0,0.27966102,4.4705852,3.5048112)">
	<g
   id="g46">
		<path
   d="m 409.6,221.867 c -51.755,0 -93.867,42.112 -93.867,93.867 0,51.755 42.112,93.867 93.867,93.867 51.755,0 93.867,-42.112 93.867,-93.867 0,-51.755 -42.112,-93.867 -93.867,-93.867 z m 0,170.666 c -42.351,0 -76.8,-34.449 -76.8,-76.8 0,-42.351 34.449,-76.8 76.8,-76.8 42.351,0 76.8,34.449 76.8,76.8 0,42.351 -34.449,76.8 -76.8,76.8 z"
   id="path44"
   inkscape:connector-curvature="0" />
	</g>
</g>
<g
   id="g54"
   transform="matrix(0.27966102,0,0,0.27966102,4.4705852,3.5048112)">
	<g
   id="g52">
		<path
   d="m 409.6,256 c -18.825,0 -34.133,15.309 -34.133,34.133 0,18.825 15.309,34.133 34.133,34.133 18.825,0 34.133,-15.309 34.133,-34.133 C 443.733,271.309 428.425,256 409.6,256 Z m 0,51.2 c -9.412,0 -17.067,-7.654 -17.067,-17.067 0,-9.412 7.654,-17.067 17.067,-17.067 9.412,0 17.067,7.654 17.067,17.067 0,9.413 -7.655,17.067 -17.067,17.067 z"
   id="path50"
   inkscape:connector-curvature="0" />
	</g>
</g>
<g
   id="g60"
   transform="matrix(0.27966102,0,0,0.27966102,4.4705852,3.5048112)">
	<g
   id="g58">
		<path
   d="m 434.355,341.333 h -49.51 c -14.583,0 -26.445,11.546 -26.445,25.728 v 22.494 c 0,3.046 1.621,5.862 4.258,7.39 14.302,8.277 30.532,12.655 46.942,12.655 16.41,0 32.64,-4.378 46.942,-12.655 2.637,-1.519 4.258,-4.344 4.258,-7.381 V 367.07 c 0,-14.191 -11.861,-25.737 -26.445,-25.737 z m 9.378,43.136 c -21.239,10.581 -47.027,10.581 -68.267,0 V 367.07 c 0,-4.779 4.207,-8.67 9.378,-8.67 h 49.51 c 5.171,0 9.378,3.891 9.378,8.67 v 17.399 z"
   id="path56"
   inkscape:connector-curvature="0" />
	</g>
</g>
<g
   id="g66"
   transform="matrix(0.27966102,0,0,0.27966102,4.4705852,3.5048112)">
	<g
   id="g64">
		<path
   d="m 204.8,324.267 c -51.755,0 -93.867,42.112 -93.867,93.867 0,51.755 42.112,93.866 93.867,93.866 51.755,0 93.867,-42.112 93.867,-93.867 0,-51.755 -42.112,-93.866 -93.867,-93.866 z m 0,170.666 c -42.351,0 -76.8,-34.449 -76.8,-76.8 0,-42.351 34.449,-76.8 76.8,-76.8 42.351,0 76.8,34.449 76.8,76.8 0,42.351 -34.449,76.8 -76.8,76.8 z"
   id="path62"
   inkscape:connector-curvature="0" />
	</g>
</g>
<g
   id="g72"
   transform="matrix(0.27966102,0,0,0.27966102,4.4705852,3.5048112)">
	<g
   id="g70">
		<path
   d="m 204.8,358.4 c -18.825,0 -34.133,15.309 -34.133,34.133 0,18.825 15.309,34.133 34.133,34.133 18.824,0 34.133,-15.309 34.133,-34.133 0,-18.824 -15.308,-34.133 -34.133,-34.133 z m 0,51.2 c -9.412,0 -17.067,-7.654 -17.067,-17.067 0,-9.412 7.654,-17.067 17.067,-17.067 9.412,0 17.067,7.654 17.067,17.067 0,9.413 -7.655,17.067 -17.067,17.067 z"
   id="path68"
   inkscape:connector-curvature="0" />
	</g>
</g>
<g
   id="g78"
   transform="matrix(0.27966102,0,0,0.27966102,4.4705852,3.5048112)">
	<g
   id="g76">
		<path
   d="m 229.555,443.733 h -49.51 c -14.583,0 -26.445,11.546 -26.445,25.728 v 22.494 c 0,3.046 1.621,5.862 4.258,7.39 C 172.16,507.622 188.39,512 204.8,512 c 16.41,0 32.64,-4.378 46.942,-12.655 2.637,-1.519 4.258,-4.343 4.258,-7.381 V 469.47 c 0,-14.191 -11.861,-25.737 -26.445,-25.737 z m 9.378,43.136 c -21.24,10.581 -47.027,10.581 -68.267,0 V 469.47 c 0,-4.779 4.207,-8.67 9.378,-8.67 h 49.51 c 5.171,0 9.378,3.891 9.378,8.67 v 17.399 z"
   id="path74"
   inkscape:connector-curvature="0" />
	</g>
</g>
<g
   id="g84"
   transform="matrix(0.27966102,0,0,0.27966102,4.4705852,3.5048112)">
	<g
   id="g82">
		<path
   d="M 93.867,110.933 C 42.112,110.933 0,153.045 0,204.8 c 0,51.755 42.112,93.867 93.867,93.867 51.755,0 93.867,-42.112 93.867,-93.867 -0.001,-51.755 -42.113,-93.867 -93.867,-93.867 z m 0,170.667 c -42.351,0 -76.8,-34.449 -76.8,-76.8 0,-42.351 34.449,-76.8 76.8,-76.8 42.351,0 76.8,34.449 76.8,76.8 0,42.351 -34.449,76.8 -76.8,76.8 z"
   id="path80"
   inkscape:connector-curvature="0" />
	</g>
</g>
<g
   id="g90"
   transform="matrix(0.27966102,0,0,0.27966102,4.4705852,3.5048112)">
	<g
   id="g88">
		<path
   d="m 93.867,145.067 c -18.825,0 -34.133,15.309 -34.133,34.133 0,18.824 15.309,34.133 34.133,34.133 18.825,0 34.133,-15.309 34.133,-34.133 0,-18.824 -15.309,-34.133 -34.133,-34.133 z m 0,51.2 c -9.412,0 -17.067,-7.654 -17.067,-17.067 0,-9.413 7.654,-17.067 17.067,-17.067 9.412,0 17.067,7.654 17.067,17.067 0,9.413 -7.655,17.067 -17.067,17.067 z"
   id="path86"
   inkscape:connector-curvature="0" />
	</g>
</g>
<g
   id="g96"
   transform="matrix(0.27966102,0,0,0.27966102,4.4705852,3.5048112)">
	<g
   id="g94">
		<path
   d="m 118.622,230.4 h -49.51 c -14.583,0 -26.445,11.546 -26.445,25.728 v 22.494 c 0,3.046 1.621,5.862 4.258,7.39 14.302,8.277 30.532,12.655 46.942,12.655 16.41,0 32.64,-4.378 46.942,-12.655 2.637,-1.519 4.258,-4.344 4.258,-7.381 v -22.494 c 0,-14.191 -11.862,-25.737 -26.445,-25.737 z M 128,273.536 c -21.239,10.581 -47.027,10.581 -68.267,0 v -17.399 c 0,-4.779 4.207,-8.67 9.378,-8.67 h 49.51 c 5.171,0 9.378,3.891 9.378,8.67 v 17.399 z"
   id="path92"
   inkscape:connector-curvature="0" />
	</g>
</g>
<g
   id="g102"
   transform="matrix(0.27966102,0,0,0.27966102,4.4705852,3.5048112)">
	<g
   id="g100">
		<path
   d="M 298.667,0 C 246.912,0 204.8,42.112 204.8,93.867 c 0,51.755 42.112,93.867 93.867,93.867 51.755,0 93.867,-42.112 93.867,-93.867 C 392.533,42.112 350.421,0 298.667,0 Z m 0,170.667 c -42.351,0 -76.8,-34.449 -76.8,-76.8 0,-42.351 34.449,-76.8 76.8,-76.8 42.351,0 76.8,34.449 76.8,76.8 0,42.351 -34.449,76.8 -76.8,76.8 z"
   id="path98"
   inkscape:connector-curvature="0" />
	</g>
</g>
<g
   id="g108"
   transform="matrix(0.27966102,0,0,0.27966102,4.4705852,3.5048112)">
	<g
   id="g106">
		<path
   d="m 298.667,34.133 c -18.825,0 -34.133,15.309 -34.133,34.133 0,18.824 15.309,34.133 34.133,34.133 18.824,0 34.133,-15.308 34.133,-34.132 0,-18.824 -15.309,-34.134 -34.133,-34.134 z m 0,51.2 c -9.412,0 -17.067,-7.654 -17.067,-17.067 0,-9.412 7.654,-17.067 17.067,-17.067 9.413,0 17.067,7.654 17.067,17.067 -10e-4,9.413 -7.655,17.067 -17.067,17.067 z"
   id="path104"
   inkscape:connector-curvature="0" />
	</g>
</g>
<g
   id="g114"
   transform="matrix(0.27966102,0,0,0.27966102,4.4705852,3.5048112)">
	<g
   id="g112">
		<path
   d="m 323.422,119.467 h -49.51 c -14.583,0 -26.445,11.546 -26.445,25.728 v 22.494 c 0,3.046 1.621,5.862 4.258,7.39 14.302,8.277 30.532,12.655 46.942,12.655 16.41,0 32.64,-4.378 46.942,-12.655 2.637,-1.519 4.258,-4.344 4.258,-7.381 v -22.494 c 0,-14.192 -11.862,-25.737 -26.445,-25.737 z m 9.378,43.136 c -21.239,10.581 -47.027,10.581 -68.267,0 v -17.399 c 0,-4.779 4.207,-8.67 9.378,-8.67 h 49.51 c 5.171,0 9.378,3.891 9.378,8.67 v 17.399 z"
   id="path110"
   inkscape:connector-curvature="0" />
	</g>
</g>
<g
   id="g120"
   transform="matrix(0.27966102,0,0,0.27966102,4.4705852,3.5048112)">
	<g
   id="g118">
		<path
   d="m 219.827,88.311 c -3.063,-3.567 -8.448,-3.994 -12.032,-0.93 l -59.136,50.603 c -3.584,3.063 -4.002,8.448 -0.939,12.032 1.69,1.971 4.079,2.987 6.485,2.987 1.963,0 3.934,-0.674 5.547,-2.057 l 59.136,-50.603 c 3.585,-3.063 4.003,-8.448 0.939,-12.032 z"
   id="path116"
   inkscape:connector-curvature="0" />
	</g>
</g>
<g
   id="g126"
   transform="matrix(0.27966102,0,0,0.27966102,4.4705852,3.5048112)">
	<g
   id="g124">
		<path
   d="m 407.893,225.289 -51.2,-68.267 c -2.825,-3.78 -8.175,-4.523 -11.947,-1.707 -3.772,2.825 -4.531,8.175 -1.707,11.938 l 51.2,68.267 c 1.681,2.236 4.241,3.413 6.835,3.413 1.775,0 3.576,-0.555 5.112,-1.707 3.772,-2.824 4.532,-8.174 1.707,-11.937 z"
   id="path122"
   inkscape:connector-curvature="0" />
	</g>
</g>
<g
   id="g132"
   transform="matrix(0.27966102,0,0,0.27966102,4.4705852,3.5048112)">
	<g
   id="g130">
		<path
   d="m 337.86,343.953 c -2.825,-3.772 -8.175,-4.531 -11.947,-1.707 l -47.667,35.746 c -3.772,2.825 -4.531,8.175 -1.707,11.938 1.681,2.236 4.241,3.413 6.835,3.413 1.783,0 3.575,-0.563 5.112,-1.707 l 47.667,-35.746 c 3.772,-2.823 4.532,-8.174 1.707,-11.937 z"
   id="path128"
   inkscape:connector-curvature="0" />
	</g>
</g>
<g
   id="g138"
   transform="matrix(0.27966102,0,0,0.27966102,4.4705852,3.5048112)">
	<g
   id="g136">
		<path
   d="M 119.467,409.6 H 59.733 c -4.71,0 -8.533,3.814 -8.533,8.533 0,4.719 3.823,8.533 8.533,8.533 h 59.733 c 4.71,0 8.533,-3.814 8.533,-8.533 0,-4.719 -3.822,-8.533 -8.532,-8.533 z"
   id="path134"
   inkscape:connector-curvature="0" />
	</g>
</g>
<g
   id="g144"
   transform="matrix(0.27966102,0,0,0.27966102,4.4705852,3.5048112)">
	<g
   id="g142">
		<path
   d="M 93.867,0 C 75.042,0 59.733,15.309 59.733,34.133 c 0,18.825 15.309,34.133 34.133,34.133 18.825,0 34.133,-15.309 34.133,-34.133 C 128,15.309 112.691,0 93.867,0 Z m 0,51.2 C 84.455,51.2 76.8,43.546 76.8,34.133 c 0,-9.412 7.654,-17.067 17.067,-17.067 9.412,0 17.067,7.654 17.067,17.067 -10e-4,9.413 -7.655,17.067 -17.067,17.067 z"
   id="path140"
   inkscape:connector-curvature="0" />
	</g>
</g>
<g
   id="g150"
   transform="matrix(0.27966102,0,0,0.27966102,4.4705852,3.5048112)">
	<g
   id="g148">
		<path
   d="m 93.867,51.2 c -4.71,0 -8.533,3.814 -8.533,8.533 v 59.733 c 0,4.719 3.823,8.533 8.533,8.533 4.71,0 8.533,-3.814 8.533,-8.533 V 59.733 c 0,-4.719 -3.823,-8.533 -8.533,-8.533 z"
   id="path146"
   inkscape:connector-curvature="0" />
	</g>
</g>
<g
   id="g152"
   transform="translate(0,-362)">
</g>
<g
   id="g154"
   transform="translate(0,-362)">
</g>
<g
   id="g156"
   transform="translate(0,-362)">
</g>
<g
   id="g158"
   transform="translate(0,-362)">
</g>
<g
   id="g160"
   transform="translate(0,-362)">
</g>
<g
   id="g162"
   transform="translate(0,-362)">
</g>
<g
   id="g164"
   transform="translate(0,-362)">
</g>
<g
   id="g166"
   transform="translate(0,-362)">
</g>
<g
   id="g168"
   transform="translate(0,-362)">
</g>
<g
   id="g170"
   transform="translate(0,-362)">
</g>
<g
   id="g172"
   transform="translate(0,-362)">
</g>
<g
   id="g174"
   transform="translate(0,-362)">
</g>
<g
   id="g176"
   transform="translate(0,-362)">
</g>
<g
   id="g178"
   transform="translate(0,-362)">
</g>
<g
   id="g180"
   transform="translate(0,-362)">
</g>
</svg>