<?xml version="1.0" encoding="UTF-8" standalone="no"?>
<!-- Generator: Adobe Illustrator 19.0.0, SVG Export Plug-In . SVG Version: 6.00 Build 0)  -->

<svg
   xmlns:dc="http://purl.org/dc/elements/1.1/"
   xmlns:cc="http://creativecommons.org/ns#"
   xmlns:rdf="http://www.w3.org/1999/02/22-rdf-syntax-ns#"
   xmlns:svg="http://www.w3.org/2000/svg"
   xmlns="http://www.w3.org/2000/svg"
   xmlns:sodipodi="http://sodipodi.sourceforge.net/DTD/sodipodi-0.dtd"
   xmlns:inkscape="http://www.inkscape.org/namespaces/inkscape"
   version="1.1"
   id="Capa_1"
   x="0px"
   y="0px"
   viewBox="0 0 512 512"
   style="enable-background:new 0 0 512 512;"
   xml:space="preserve"
   sodipodi:docname="icon_training.svg"
   inkscape:version="0.92.4 (5da689c313, 2019-01-14)"><metadata
   id="metadata43"><rdf:RDF><cc:Work
       rdf:about=""><dc:format>image/svg+xml</dc:format><dc:type
         rdf:resource="http://purl.org/dc/dcmitype/StillImage" /></cc:Work></rdf:RDF></metadata><defs
   id="defs41" /><sodipodi:namedview
   pagecolor="#ffffff"
   bordercolor="#666666"
   borderopacity="1"
   objecttolerance="10"
   gridtolerance="10"
   guidetolerance="10"
   inkscape:pageopacity="0"
   inkscape:pageshadow="2"
   inkscape:window-width="1920"
   inkscape:window-height="1017"
   id="namedview39"
   showgrid="false"
   inkscape:zoom="0.4609375"
   inkscape:cx="-14.101695"
   inkscape:cy="256"
   inkscape:window-x="-8"
   inkscape:window-y="-8"
   inkscape:window-maximized="1"
   inkscape:current-layer="g6" />
<g
   id="g6">
	<g
   id="g4"
   style="fill:#ffffff">
		<path
   d="M 512,317 V 45 C 512,20.187 491.813,0 467,0 H 45 C 20.187,0 0,20.187 0,45 v 242 c 0,4.881 0,208.156 0,210 0,8.284 6.716,15 15,15 9.233,0 485.184,0 497,0 v -30 c 0,-24.024 -9.786,-46.693 -27.554,-63.83 -6.089,-5.873 -12.843,-10.804 -20.06,-14.769 C 475.222,392.54 482,377.877 482,362 c 0,-0.857 -0.031,-1.708 -0.07,-2.557 C 499.425,353.271 512,336.58 512,317 Z M 60,482 c 0,-33.084 26.916,-60 60,-60 33.084,0 60,26.916 60,60 z M 90,362 c 0,-16.542 13.458,-30 30,-30 16.542,0 30,13.458 30,30 0,16.542 -13.458,30 -30,30 -16.542,0 -30,-13.458 -30,-30 z m 105,70.309 C 187.003,420.279 176.194,410.276 163.516,403.243 173.72,392.482 180,377.965 180,362 c 0,-33.084 -26.916,-60 -60,-60 -33.084,0 -60,26.916 -60,60 0,15.965 6.28,30.482 16.484,41.243 C 48.79,418.606 30,448.148 30,482 c 0,-10.639 0,-187.183 0,-195 0,-41.355 33.645,-75 75,-75 h 186.577 c 6.883,0 12.883,-4.685 14.552,-11.363 l 24.314,-97.27 c 2.001,-7.981 10.089,-12.972 18.202,-10.921 8.019,2.003 12.912,10.168 10.909,18.196 L 329.556,230.634 C 327.883,237.326 321.897,242 315,242 h -90 c -8.284,0 -15,6.716 -15,15 0,99.756 -0.252,93.747 0.589,96.689 -2.572,18.468 3.484,36.466 15.895,49.554 -12.678,7.033 -23.488,17.036 -31.484,29.066 z M 90,137 c 0,-24.813 20.187,-45 45,-45 24.813,0 45,20.187 45,45 0,24.813 -20.187,45 -45,45 -24.813,0 -45,-20.187 -45,-45 z m 120,345 c 0,-33.084 26.916,-60 60,-60 33.084,0 60,26.916 60,60 z m 30,-120 c 0,-16.542 13.458,-30 30,-30 16.542,0 30,13.458 30,30 0,16.542 -13.458,30 -30,30 -16.542,0 -30,-13.458 -30,-30 z m 105,70.309 C 337.003,420.279 326.194,410.276 313.516,403.243 323.72,392.482 330,377.965 330,362 h 30 c 0,15.965 6.28,30.482 16.484,41.243 -12.678,7.033 -23.488,17.036 -31.484,29.066 z M 482,482 H 360 c 0,-33.084 26.916,-60 60,-60 33.607,0 62,27.477 62,60 z M 390,362 c 0,-16.542 13.458,-30 30,-30 17.047,0 32,14.019 32,30 0,15.981 -14.953,30 -32,30 -16.542,0 -30,-13.458 -30,-30 z m 92,-45 c 0,6.259 -3.856,11.629 -9.315,13.874 C 461.636,313.705 441.931,302 420,302 c -22.159,0 -41.537,12.084 -51.928,30 H 321.928 C 311.537,314.084 292.159,302 270,302 c -10.925,0 -21.167,2.949 -30,8.072 V 272 h 75 c 20.688,0 38.643,-14.018 43.661,-34.089 l 30,-119.999 c 6.009,-24.08 -8.68,-48.561 -32.701,-54.561 -24.05,-6.083 -48.549,8.521 -54.618,32.731 L 279.865,182 H 194.959 C 204.397,169.456 210,153.871 210,137 210,95.645 176.355,62 135,62 93.645,62 60,95.645 60,137 c 0,18.507 6.752,35.457 17.904,48.552 C 59.451,190.485 42.987,200.33 30,213.596 V 45 c 0,-8.271 6.729,-15 15,-15 h 422 c 8.271,0 15,6.729 15,15 z"
   id="path2"
   inkscape:connector-curvature="0"
   style="fill:#ffffff" />
	</g>
</g>
<g
   id="g8">
</g>
<g
   id="g10">
</g>
<g
   id="g12">
</g>
<g
   id="g14">
</g>
<g
   id="g16">
</g>
<g
   id="g18">
</g>
<g
   id="g20">
</g>
<g
   id="g22">
</g>
<g
   id="g24">
</g>
<g
   id="g26">
</g>
<g
   id="g28">
</g>
<g
   id="g30">
</g>
<g
   id="g32">
</g>
<g
   id="g34">
</g>
<g
   id="g36">
</g>
</svg>