<svg height="512" viewBox="0 0 60 60" width="512" xmlns="http://www.w3.org/2000/svg"><g id="Page-1" fill="none" fill-rule="evenodd"><g id="017---Online-Course" fill-rule="nonzero"><g id="colour" transform="translate(1 1)"><path id="Shape" d="m58 4v4h-58v-4c0-2.209139 1.790861-4 4-4h50c2.209139 0 4 1.790861 4 4z" fill="#26aaf7"/><path id="Shape" d="m54 0h-3c2.209139 0 4 1.790861 4 4v4h3v-4c0-2.209139-1.790861-4-4-4z" fill="#1779be"/><path id="Shape" d="m58 8v46c0 2.209139-1.790861 4-4 4h-50c-2.209139 0-4-1.790861-4-4v-46z" fill="#f4f4f4"/><path id="Shape" d="m55 8v46c0 2.209139-1.790861 4-4 4h3c2.209139 0 4-1.790861 4-4v-46z" fill="#ced7db"/><circle id="Oval" cx="5" cy="4" fill="#ffe800" r="1"/><circle id="Oval" cx="9" cy="4" fill="#e83247" r="1"/><circle id="Oval" cx="13" cy="4" fill="#a6c100" r="1"/><path id="Shape" d="m52 5h-1c-.5522847 0-1-.44771525-1-1s.4477153-1 1-1h1c.5522847 0 1 .44771525 1 1s-.4477153 1-1 1z" fill="#f4f4f4"/><path id="Shape" d="m47 5h-6c-.5522847 0-1-.44771525-1-1s.4477153-1 1-1h6c.5522847 0 1 .44771525 1 1s-.4477153 1-1 1z" fill="#f4f4f4"/><rect id="Rectangle-path" fill="#627d8b" height="20" rx="2" width="44" x="7" y="12"/><path id="Shape" d="m49 12h-3c1.1045695 0 2 .8954305 2 2v16c0 1.1045695-.8954305 2-2 2h3c1.1045695 0 2-.8954305 2-2v-16c0-1.1045695-.8954305-2-2-2z" fill="#384750"/><circle id="Oval" cx="29" cy="22" fill="#a6c100" r="6"/><path id="Shape" d="m29 16c-.5066588-.0001775-1.0110876.0670797-1.5.2 2.6313194.6969499 4.4637709 3.0779454 4.4637709 5.8s-1.8324515 5.1030501-4.4637709 5.8c.4889124.1329203.9933412.2001775 1.5.2 3.3137084-.0000001 5.9999999-2.6862916 5.9999999-6s-2.6862915-5.9999999-5.9999999-6z" fill="#92aa00"/><path id="Shape" d="m29 40v12c0 1.1045695-.8954305 2-2 2h-18c-1.1045695 0-2-.8954305-2-2v-12c0-1.1045695.8954305-2 2-2h2v11c0 .5522847.4477153 1 1 1h12c.5522847 0 1-.4477153 1-1v-11h2c1.1045695 0 2 .8954305 2 2z" fill="#ed432a"/><path id="Shape" d="m27 38h-2v.28c.6150891.3551046.9957131 1.0097779 1 1.72v12c0 1.1045695-.8954305 2-2 2h3c1.1045695 0 2-.8954305 2-2v-12c0-1.1045695-.8954305-2-2-2z" fill="#c21e11"/><path id="Shape" d="m18 38v10c0-1.1045695-.8954305-2-2-2h-5v-9c0-.5522847.4477153-1 1-1h4c1.1045695 0 2 .8954305 2 2z" fill="#f4f4f4"/><path id="Shape" d="m25 37v9h-5c-1.1045695 0-2 .8954305-2 2v-10c0-1.1045695.8954305-2 2-2h4c.5522847 0 1 .4477153 1 1z" fill="#f4f4f4"/><path id="Shape" d="m24 36h-3c.5522847 0 1 .4477153 1 1v9h3v-9c0-.5522847-.4477153-1-1-1z" fill="#ced7db"/><g fill="#808d93"><path id="Shape" d="m18 48v2h-6c-.5522847 0-1-.4477153-1-1v-3h5c1.1045695 0 2 .8954305 2 2z"/><path id="Shape" d="m25 46v3c0 .5522847-.4477153 1-1 1h-6v-2c0-1.1045695.8954305-2 2-2z"/></g></g><g id="outline" fill="#000"><path id="Shape" d="m55 0h-50c-2.76142375 0-5 2.23857625-5 5v50c0 2.7614237 2.23857625 5 5 5h50c2.7614237 0 5-2.2385763 5-5v-50c0-2.76142375-2.2385763-5-5-5zm-50 2h50c1.6568542 0 3 1.34314575 3 3v3h-56v-3c0-1.65685425 1.34314575-3 3-3zm50 56h-50c-1.65685425 0-3-1.3431458-3-3v-45h56v45c0 1.6568542-1.3431458 3-3 3z"/><path id="Shape" d="m50 12h-40c-1.65685425 0-3 1.3431458-3 3v16c0 1.6568542 1.34314575 3 3 3h40c1.6568542 0 3-1.3431458 3-3v-16c0-1.6568542-1.3431458-3-3-3zm1 19c0 .5522847-.4477153 1-1 1h-40c-.55228475 0-1-.4477153-1-1v-16c0-.5522847.44771525-1 1-1h40c.5522847 0 1 .4477153 1 1z"/><path id="Shape" d="m30 16c-3.8659932 0-7 3.1340068-7 7s3.1340068 7 7 7 7-3.1340068 7-7c0-1.8565154-.7374979-3.6369928-2.0502525-4.9497475-1.3127547-1.3127546-3.0932321-2.0502525-4.9497475-2.0502525zm0 12c-2.7614237 0-5-2.2385763-5-5s2.2385763-5 5-5 5 2.2385763 5 5-2.2385763 5-5 5z"/><path id="Shape" d="m32.55 22.17-3-2c-.2955284-.2380487-.7003343-.2883109-1.0451054-.1297641-.3447712.1585468-.570095.4985809-.5817287.8778815-.0116337.3793005.1924276.7325045.5268341.9118826l1.75 1.17-1.75 1.17c-.3640258.2445986-.5261957.6978475-.3999631 1.1178578.1262326.4200102.5114066.7087569.9499631.7121422.1966006.0022477.3889572-.057208.55-.17l3-2c.2764295-.1857617.4422366-.4969525.4422366-.83s-.1658071-.6442383-.4422366-.83z"/><path id="Shape" d="m28 38h-1c0-1.1045695-.8954305-2-2-2h-4c-.7387322.0016676-1.4508762.275843-2 .77-.5491238-.494157-1.2612678-.7683324-2-.77h-4c-1.1045695 0-2 .8954305-2 2h-1c-1.65685425 0-3 1.3431458-3 3v12c0 1.6568542 1.34314575 3 3 3h18c1.6568542 0 3-1.3431458 3-3v-12c0-1.6568542-1.3431458-3-3-3zm-15 10h4c.5522847 0 1 .4477153 1 1v1h-5zm7 1c0-.5522847.4477153-1 1-1h4v2h-5zm1-11h4v8h-4c-.3411432.0027046-.679326.0635775-1 .18v-7.18c0-.5522847.4477153-1 1-1zm-4 0c.5522847 0 1 .4477153 1 1v7.18c-.320674-.1164225-.6588568-.1772954-1-.18h-4v-8zm12 15c0 .5522847-.4477153 1-1 1h-18c-.55228475 0-1-.4477153-1-1v-12c0-.5522847.44771525-1 1-1h1v10c0 1.1045695.8954305 2 2 2h12c1.1045695 0 2-.8954305 2-2v-10h1c.5522847 0 1 .4477153 1 1z"/><path id="Shape" d="m52 40h-16c-.5522847 0-1 .4477153-1 1s.4477153 1 1 1h16c.5522847 0 1-.4477153 1-1s-.4477153-1-1-1z"/><path id="Shape" d="m45 52h-9c-.5522847 0-1 .4477153-1 1s.4477153 1 1 1h9c.5522847 0 1-.4477153 1-1s-.4477153-1-1-1z"/><path id="Shape" d="m36 46h9c.5522847 0 1-.4477153 1-1s-.4477153-1-1-1h-9c-.5522847 0-1 .4477153-1 1s.4477153 1 1 1z"/><path id="Shape" d="m36 50h2c.5522847 0 1-.4477153 1-1s-.4477153-1-1-1h-2c-.5522847 0-1 .4477153-1 1s.4477153 1 1 1z"/><path id="Shape" d="m52 44h-3c-.5522847 0-1 .4477153-1 1s.4477153 1 1 1h3c.5522847 0 1-.4477153 1-1s-.4477153-1-1-1z"/><path id="Shape" d="m52 48h-10c-.5522847 0-1 .4477153-1 1s.4477153 1 1 1h10c.5522847 0 1-.4477153 1-1s-.4477153-1-1-1z"/></g></g></g></svg>